<svg xmlns="http://www.w3.org/2000/svg" viewBox="0 0 46.46 25.53"><defs><style>.cls-1{fill:#e3e3e3;}</style></defs><title>membersAsset 5</title><g id="Layer_2" data-name="Layer 2"><g id="Layer_1-2" data-name="Layer 1"><path class="cls-1" d="M7.48,19.54a6,6,0,1,1,6-6A6,6,0,0,1,7.48,19.54Zm0-9a3,3,0,1,0,3,3A3,3,0,0,0,7.48,10.56Z"/><path class="cls-1" d="M35.13,25.47h-3.4a8.49,8.49,0,0,0-17,0h-3.4a11.89,11.89,0,0,1,23.78,0Z"/><path class="cls-1" d="M39,19.54a6,6,0,1,1,6-6A6,6,0,0,1,39,19.54Zm0-9a3,3,0,1,0,3,3A3,3,0,0,0,39,10.56Z"/><path class="cls-1" d="M23.24,17a8.49,8.49,0,1,1,8.49-8.49A8.5,8.5,0,0,1,23.24,17Zm0-13.59a5.1,5.1,0,1,0,5.1,5.1A5.1,5.1,0,0,0,23.24,3.39Z"/><path class="cls-1" d="M34.5,25.53h-3V24a7.48,7.48,0,0,1,15,0h-3a4.5,4.5,0,0,0-9,0v1.5Z"/><path class="cls-1" d="M15,25.53H12V24a4.49,4.49,0,0,0-9,0H0a7.48,7.48,0,1,1,15,0v1.5Z"/></g></g></svg>