<svg xmlns="http://www.w3.org/2000/svg" viewBox="0 0 31.5 42"><defs><style>.cls-1{fill:#e2a125;opacity:0.95;}</style></defs><title>newMemberAsset 9</title><g id="Layer_2" data-name="Layer 2"><g id="Layer_1-2" data-name="Layer 1"><g id="user_half_edit"><path class="cls-1" d="M10.5,10.5A5.25,5.25,0,1,0,5.25,5.25,5.25,5.25,0,0,0,10.5,10.5Zm10.5,8v-2.7a2.58,2.58,0,0,0-2.63-2.63H2.62A2.57,2.57,0,0,0,0,15.75V34.12a2.57,2.57,0,0,0,2.62,2.63V42H18.37v-.08a11.55,11.55,0,0,0,1.32.08A11.81,11.81,0,0,0,21,18.45ZM19.69,39.22a9,9,0,1,1,9-9A9.05,9.05,0,0,1,19.69,39.22Z"/><polygon class="cls-1" points="18.38 35.44 14.44 35.44 14.44 31.5 18.38 35.44"/><rect class="cls-1" x="16.36" y="26.09" width="9.28" height="5.57" transform="translate(-14.27 23.31) rotate(-45)"/></g></g></g></svg>