<svg xmlns="http://www.w3.org/2000/svg" viewBox="0 0 25.02 25"><defs><style>.cls-1{fill:#e3e3e3;}</style></defs><title>reserveAsset 4</title><g id="Layer_2" data-name="Layer 2"><g id="Layer_1-2" data-name="Layer 1"><path class="cls-1" d="M24.16,6.75,18.28.84a3,3,0,0,0-4.16,0,2.67,2.67,0,0,0-.61.92,8.46,8.46,0,0,1-3.31,4l-.32.16A14.39,14.39,0,0,1,2.94,7.36a2.92,2.92,0,0,0-1.13.22A2.93,2.93,0,0,0,.22,11.41a2.94,2.94,0,0,0,.64,1l4.76,4.76L0,25l7.87-5.62,4.74,4.74a2.86,2.86,0,0,0,1,.65A3,3,0,0,0,14.7,25a3,3,0,0,0,2.94-2.94,14.33,14.33,0,0,1,1.44-6.94,8.06,8.06,0,0,1,4.05-3.55,3.15,3.15,0,0,0,1-.67A3,3,0,0,0,24.16,6.75ZM16.45,13.8A17.7,17.7,0,0,0,14.69,22L2.94,10.3a17.77,17.77,0,0,0,7.93-1.6l.35-.15c2-1,3.62-2.78,5-5.64l5.76,6A11,11,0,0,0,16.45,13.8Z"/></g></g></svg>