<svg xmlns="http://www.w3.org/2000/svg" viewBox="0 0 22.83 28"><defs><style>.cls-1{fill:#e3e3e3;}</style></defs><title>booksAsset 6</title><g id="Layer_2" data-name="Layer 2"><g id="Layer_1-2" data-name="Layer 1"><g id="Expanded"><path class="cls-1" d="M12.25,28H2.92A2.92,2.92,0,0,1,0,25.08V2.92a.59.59,0,1,1,1.17,0V25.08a1.75,1.75,0,0,0,1.75,1.75h9.33a.59.59,0,0,1,0,1.17Z"/><path class="cls-1" d="M22.83,5.92V25.08A2.92,2.92,0,0,1,19.92,28H10.58a.59.59,0,0,1,0-1.17h9.34a1.75,1.75,0,0,0,1.75-1.75V5.92"/><path class="cls-1" d="M22.26,13.42a.58.58,0,0,1-.57-.59v-7H2.85A2.89,2.89,0,0,1,0,2.92,2.89,2.89,0,0,1,2.85,0H22.26a.57.57,0,0,1,.57.58.57.57,0,0,1-.57.59H2.85A1.73,1.73,0,0,0,1.14,2.92,1.74,1.74,0,0,0,2.85,4.67h20v8.16A.57.57,0,0,1,22.26,13.42Z"/><rect class="cls-1" x="2.92" y="2.33" width="19.25" height="1.17"/></g></g></g></svg>