<svg xmlns="http://www.w3.org/2000/svg" viewBox="0 0 25.67 28"><defs><style>.cls-1{fill:#e3e3e3;}</style></defs><title>borrowAsset 2</title><g id="Layer_2" data-name="Layer 2"><g id="Layer_1-2" data-name="Layer 1"><g id="Expanded"><path class="cls-1" d="M12.25,28H2.92A2.92,2.92,0,0,1,0,25.08V2.92a.59.59,0,1,1,1.17,0V25.08a1.75,1.75,0,0,0,1.75,1.75h9.33a.59.59,0,0,1,0,1.17Z"/><path class="cls-1" d="M22.75,13.42a.58.58,0,0,1-.58-.59v-7H2.92A2.92,2.92,0,1,1,2.92,0H22.75a.58.58,0,0,1,.58.58.58.58,0,0,1-.58.59H2.92a1.75,1.75,0,0,0,0,3.5H23.33v8.16A.58.58,0,0,1,22.75,13.42Z"/><path class="cls-1" d="M18.67,28a7,7,0,1,1,7-7A7,7,0,0,1,18.67,28Zm0-12.83A5.83,5.83,0,1,0,24.5,21,5.84,5.84,0,0,0,18.67,15.17Z"/><path class="cls-1" d="M19.25,18.32v5.84a.59.59,0,0,1-1.17,0V18.32a.59.59,0,0,1,1.17,0Z"/><path class="cls-1" d="M21.41,20.25a.58.58,0,0,1-.82.82l-1.92-1.92-1.92,1.92a.59.59,0,0,1-.83,0,.57.57,0,0,1,0-.82l2.75-2.75Z"/><rect class="cls-1" x="2.92" y="2.33" width="19.25" height="1.17"/></g></g></g></svg>