<?xml version="1.0" encoding="UTF-8" standalone="no"?>
<svg
   xmlns:dc="http://purl.org/dc/elements/1.1/"
   xmlns:cc="http://creativecommons.org/ns#"
   xmlns:rdf="http://www.w3.org/1999/02/22-rdf-syntax-ns#"
   xmlns:svg="http://www.w3.org/2000/svg"
   xmlns="http://www.w3.org/2000/svg"
   xmlns:sodipodi="http://sodipodi.sourceforge.net/DTD/sodipodi-0.dtd"
   xmlns:inkscape="http://www.inkscape.org/namespaces/inkscape"
   viewBox="0 0 206.24 98.22"
   version="1.1"
   id="svg12"
   sodipodi:docname="darelhadith_white.svg"
   inkscape:version="0.92.2 (5c3e80d, 2017-08-06)">
  <metadata
     id="metadata16">
    <rdf:RDF>
      <cc:Work
         rdf:about="">
        <dc:format>image/svg+xml</dc:format>
        <dc:type
           rdf:resource="http://purl.org/dc/dcmitype/StillImage" />
        <dc:title>Asset 1</dc:title>
      </cc:Work>
    </rdf:RDF>
  </metadata>
  <sodipodi:namedview
     pagecolor="#ffffff"
     bordercolor="#666666"
     borderopacity="1"
     objecttolerance="10"
     gridtolerance="10"
     guidetolerance="10"
     inkscape:pageopacity="0"
     inkscape:pageshadow="2"
     inkscape:window-width="1366"
     inkscape:window-height="705"
     id="namedview14"
     showgrid="false"
     inkscape:zoom="1.3770364"
     inkscape:cx="103.12"
     inkscape:cy="49.110001"
     inkscape:window-x="-8"
     inkscape:window-y="-8"
     inkscape:window-maximized="1"
     inkscape:current-layer="Layer_2-2" />
  <defs
     id="defs4">
    <style
       id="style2">.cls-1{fill:#00aeef;}</style>
  </defs>
  <title
     id="title6">Asset 1</title>
  <g
     id="Layer_2"
     data-name="Layer 2">
    <g
       id="Layer_2-2"
       data-name="Layer 2">
      <path
         class="cls-1"
         d="M103.09,39.54a.46.46,0,0,0-.48.54v55.2c-1.2-1.5-8.46-10.38-23.46-18C62.83,69,38.29,63.12,5.53,72.6a.56.56,0,1,0,.3,1.08c32.52-9.42,56.7-3.6,72.84,4.62s24,18.66,24,18.66a.57.57,0,0,0,1-.36V40.08a.55.55,0,0,0-.6-.54ZM64.93,0c-.06,0-.12,0-.12.06L48,6.18a.21.21,0,0,0-.12.06.53.53,0,0,0,.3,1A54.32,54.32,0,0,1,58.57,9.6L33.73,16.14a1.31,1.31,0,0,0-.3.18.06.06,0,0,0-.06.06h0a.06.06,0,0,0-.06.06h0v.06h0a.06.06,0,0,0-.06.06v.06h0v.06h0v.18c0,.06.06.06.06.12h0V17h.06v.06h0c.06,0,.06,0,.06.06h.06c.06.06.12.06.18.12h.06a108.54,108.54,0,0,1,19.92,5l-30.72,11a.5.5,0,0,0-.42.72.52.52,0,0,0,.54.36,155,155,0,0,1,24.84,4.32l-35,14.28h0a.06.06,0,0,0-.06.06h-.06V53h-.06l-.06.06h0v.06h-.06v.06h0v.06h-.06v.18h0v.06h0v.06h0v.06h.06v.06h0c0,.06,0,.06.06.06v.06h.06v.06h.06v.06h.06c.06,0,.06.06.12.06h.24c14.34-2.46,26.28-2.52,36.48-1.08L5.47,72.66a.52.52,0,1,0,.42,1l45.9-20.4a71.85,71.85,0,0,1,19.62,6.12H65.23a1.16,1.16,0,0,0-.6.18L1,86.34a1.57,1.57,0,0,0,.9,3A306.87,306.87,0,0,1,45,84c11.34-.48,23.34-.18,33.6,1.8s18.66,5.7,23.28,11.7a.72.72,0,0,0,.3.3,1.51,1.51,0,0,0,2.4-.42c4.68-5.94,13.08-9.6,23.22-11.58s22.2-2.28,33.6-1.8a306.79,306.79,0,0,1,43,5.34,1.57,1.57,0,0,0,.9-3L141.61,59.52a1.16,1.16,0,0,0-.6-.18H99.85c0-.12-.06-.24-.06-.42C95,39.12,84.31,17.16,61.21,9.06h0c-.06,0-.06-.06-.12-.06H61A57.27,57.27,0,0,0,50.41,6.48L65,1.14c23.64,6,32.58,22.8,35.82,32.28.42,1.44,1.14,3.9,1.44,5.46s.24,3.06.42,4.62c.06.84.36,2.22.36,2.52,0,2.64-.12,4.14-.12,4.5a8.83,8.83,0,0,0,.24,2.16,4.83,4.83,0,0,0,1,1.92,5,5,0,0,0,2,1.44,9.72,9.72,0,0,0,3.24.48h11.22a4.73,4.73,0,0,0,1.68-.24,2.11,2.11,0,0,0,1.08-.78,4,4,0,0,0,.72-1.2,12,12,0,0,0,.3-1.56,6,6,0,0,0,1.14,2.76,2.52,2.52,0,0,0,1.5,1c.06.06.18.06.36.06h8V42.24h-2.94v11.7H127a2.78,2.78,0,0,1-1.26-.24,3.83,3.83,0,0,1-.78-.9,6.84,6.84,0,0,1-.42-1.32,13.8,13.8,0,0,1-.12-1.68V42.24h-2.94v9.48a3.86,3.86,0,0,1-.3,1.8c-.12.3-.48.42-1,.42H109.81a5.73,5.73,0,0,1-2.7-.48,3.64,3.64,0,0,1-1.56-1.26,4.09,4.09,0,0,1-.72-1.56c-.06-.6-.12-1.08-.12-1.56a31.23,31.23,0,0,1-.36-4,31.69,31.69,0,0,0-.66-5.34c-.12-.48-.24-1-.36-1.56C101.83,31.44,94.57,7.38,65.11,0h-.18ZM172.27,5.82V31.14h-.06v22.8h-5.7a12,12,0,0,1-.24-1.44,11.69,11.69,0,0,1-.12-1.5c-.18-1.2-.3-2.46-.54-3.66a10.79,10.79,0,0,0-1-3.24,5.59,5.59,0,0,0-5.52-3.3,7.35,7.35,0,0,0-1.14.12c-.42.06-.78.18-1.14.24l-1,.36a3.67,3.67,0,0,0-.84.42l.18.9c.06.3.18.6.24.9a7.17,7.17,0,0,1,3-.78,3.5,3.5,0,0,1,2.1.54,3.93,3.93,0,0,1,1.32,1.5,9,9,0,0,1,.72,2c.18.78.3,1.62.42,2.4s.24,1.62.36,2.4a9.65,9.65,0,0,0,.6,2.1h-12a3.13,3.13,0,0,1-1.38-.3,2.22,2.22,0,0,1-.78-1,5.85,5.85,0,0,1-.36-1.68c-.06-.66-.06-1.44-.06-2.28a16.69,16.69,0,0,0-.3-3.12,7,7,0,0,0-1-2.46,4.42,4.42,0,0,0-1.86-1.62,5.52,5.52,0,0,0-2.76-.66H140v2.4h2.76a3.34,3.34,0,0,1,1.8.48,2.78,2.78,0,0,1,1.08,1.26,5.22,5.22,0,0,1,.54,1.92,15.25,15.25,0,0,1,.18,2.46v2.52a4.83,4.83,0,0,1-.24,1.62c-.18.36-.54.48-1.08.48h-6.54v2.58h6.9a9,9,0,0,0,1.26-.12,2.41,2.41,0,0,0,1.2-.54,6.29,6.29,0,0,0,.9-1.14,6,6,0,0,0,.48-2,5.81,5.81,0,0,0,.3,1.2,4.33,4.33,0,0,0,.54,1.2,4.12,4.12,0,0,0,1,1,2.56,2.56,0,0,0,1.44.36h22.68V5.82ZM60.91,10.14C83.53,18.06,94,39.54,98.71,59.22c0,.06.06.06.06.12H96.91c-6.36-14.22-18.48-29-41.22-37.62h-.12c0-.06,0-.06-.06-.06a113,113,0,0,0-19.32-5Zm118.5,5.34v2.4h2.76a3.66,3.66,0,0,1,1.68.42A2.81,2.81,0,0,1,185,19.38a4.09,4.09,0,0,1,.66,1.56,7.6,7.6,0,0,1,.24,2v5.64h-8.1v27.9h3V31.14h8.1V23a13.33,13.33,0,0,0-.48-3.84A5.27,5.27,0,0,0,187,16.92a3.75,3.75,0,0,0-1.92-1.14,7.22,7.22,0,0,0-2.28-.3Zm-14.22,1.38V33.42a20,20,0,0,1-.18,3,4.22,4.22,0,0,1-.6,1.8,2.12,2.12,0,0,1-1,.9,3.16,3.16,0,0,1-1.38.24,3.69,3.69,0,0,1-.78-.06,1.66,1.66,0,0,1-.78-.18l-.24.84a8.57,8.57,0,0,0,1.62.9,7,7,0,0,0,1.8.3,4.75,4.75,0,0,0,1.44-.3,3.76,3.76,0,0,0,1.44-1.2,7.06,7.06,0,0,0,1.2-2.34,14.25,14.25,0,0,0,.48-4V16.86ZM55.39,22.8c22.2,8.34,34,22.74,40.38,36.54h-6.9c-8-8.4-20.22-16.32-38.94-21.42h-.12a155.75,155.75,0,0,0-24.36-4.44Zm58.38,10.92a1.27,1.27,0,0,0-1.08.6,2.3,2.3,0,0,0-.42,1.32,2.26,2.26,0,0,0,.42,1.26,1.27,1.27,0,0,0,1.08.6,1.3,1.3,0,0,0,1.14-.6,1.88,1.88,0,0,0,.42-1.26,1.94,1.94,0,0,0-.42-1.32,1.3,1.3,0,0,0-1.14-.6Zm2.64,3.84a1.36,1.36,0,0,0-1.08.54,1.94,1.94,0,0,0-.48,1.26,2.14,2.14,0,0,0,.48,1.38,1.46,1.46,0,0,0,2.16,0,2.1,2.1,0,0,0,.42-1.38,1.88,1.88,0,0,0-.42-1.26,1.36,1.36,0,0,0-1.08-.54Zm-5.1.06a1.39,1.39,0,0,0-1.14.54,2.28,2.28,0,0,0,0,2.64,1.39,1.39,0,0,0,1.14.54,1.36,1.36,0,0,0,1.08-.54,2.28,2.28,0,0,0,0-2.64,1.36,1.36,0,0,0-1.08-.54ZM49.75,39.06c17.94,4.86,29.76,12.36,37.62,20.28H74a74,74,0,0,0-22.08-7.26h-.18c-9.6-1.62-21.06-1.68-34.44.24Zm78.6,20.58a1.14,1.14,0,0,1,1.14,1.14,1.14,1.14,0,1,1-2.28,0,1.14,1.14,0,0,1,1.14-1.14Zm3.12,0a1.14,1.14,0,0,1,1.14,1.14,1.14,1.14,0,1,1-2.28,0,1.14,1.14,0,0,1,1.14-1.14ZM65.53,62.52H77.05a59.06,59.06,0,0,1,24.18,29.76c-5.46-4.92-13.32-7.86-22.08-9.54-10.68-2.1-22.86-2.4-34.38-1.86-11.34.54-22,1.8-29.94,3Zm13.8,0H90.25a50.8,50.8,0,0,1,7.32,11.16c4.38,9,4.86,15.42,4.86,19.14a57.28,57.28,0,0,0-23.1-30.3Zm12.36,0h5.4c.6,1.5,1.14,3.06,1.68,4.56a81.69,81.69,0,0,1,3.36,15.72,52.6,52.6,0,0,0-3.54-9.6,55.34,55.34,0,0,0-6.9-10.68Zm6.54,0h1.26c.66,3.3,1.2,6.54,1.62,9.66-.42-1.86-.72-3.54-1.32-5.46-.48-1.38-1-2.82-1.56-4.2Zm2.34,0h40.14l50.7,21.36a300.6,300.6,0,0,0-29.94-3c-11.52-.54-23.7-.24-34.32,1.86-9.54,1.86-17.88,5.1-23.34,10.74,0-1.74-.06-4.14-.24-7.14a135.74,135.74,0,0,0-3-23.82Z"
         id="path8"
         style="fill:#ffffff" />
    </g>
  </g>
</svg>
