<svg xmlns="http://www.w3.org/2000/svg" viewBox="0 0 21.9 16.8"><defs><style>.cls-1{opacity:0.95;}.cls-2{fill:#00a77b;}</style></defs><title>messageAsset 1</title><g id="Layer_2" data-name="Layer 2"><g id="Layer_1-2" data-name="Layer 1"><g class="cls-1"><path class="cls-2" d="M19,16.8H2.91A2.87,2.87,0,0,1,0,14V2.78A2.87,2.87,0,0,1,2.91,0H19A2.87,2.87,0,0,1,21.9,2.78V14A2.88,2.88,0,0,1,19,16.8ZM2.91,1.05A1.81,1.81,0,0,0,1,2.78V14A1.79,1.79,0,0,0,2.85,15.7H18.94A1.79,1.79,0,0,0,20.75,14V2.78a1.79,1.79,0,0,0-1.81-1.73Z"/></g><g class="cls-1"><path class="cls-2" d="M10.92,10.19A3.44,3.44,0,0,1,8.45,9.08l-5.21-6a.5.5,0,0,1,0-.74.55.55,0,0,1,.77.06l5.27,6a2.06,2.06,0,0,0,1.59.74,2,2,0,0,0,1.59-.74l5.22-6a.55.55,0,0,1,.77-.05.49.49,0,0,1,.05.73l-5.21,6A3,3,0,0,1,10.92,10.19Z"/></g><g class="cls-1"><path class="cls-2" d="M19.43,14.33a.51.51,0,0,1-.44-.21L15.2,9.82a.5.5,0,0,1,.06-.74.55.55,0,0,1,.77.06l3.78,4.3a.5.5,0,0,1,0,.74A.41.41,0,0,1,19.43,14.33Z"/></g><g class="cls-1"><path class="cls-2" d="M2.42,14.28a.61.61,0,0,1-.33-.1A.5.5,0,0,1,2,13.44L5.76,9.19a.55.55,0,0,1,.77,0,.49.49,0,0,1,.06.73L2.85,14.12A.6.6,0,0,1,2.42,14.28Z"/></g></g></g></svg>