<svg width="32" height="32" xmlns="http://www.w3.org/2000/svg">

 <g>
  <title>background</title>
  <rect fill="none" id="canvas_background" height="402" width="582" y="-1" x="-1"/>
 </g>
 <g>
  <title>Layer 1</title>
  <path id="svg_1" fill="#ffffff" d="m25,13l0,-4c0,-4.971 -4.028999,-9 -9,-9c-4.971,0 -9,4.029 -9,9l0,4c-1.657,0 -3,1.343 -3,3l0,3l0,1l0,2l0,1c0,4.971001 4.029,9 9,9l6,0c4.971001,0 9,-4.028999 9,-9l0,-1l0,-2l0,-1l0,-3c0,-1.658 -1.344,-3 -3,-3zm-16,-4c0,-3.866 3.134,-7 7,-7c3.865999,0 7,3.134 7,7l0,4l-2,0l0,-3.998c0,-2.762 -2.238001,-5 -5,-5c-2.762,0 -5,2.238 -5,5l0,3.998l-2,0l0,-4zm11,0l0,0.003l0,3.997l-8,0l0,-3.998l0,-0.002c0,-2.209 1.791,-4 4,-4c2.209,0 4,1.791 4,4zm6,10l0,1l0,2l0,1c0,3.858999 -3.141001,7 -7,7l-6,0c-3.859,0 -7,-3.141001 -7,-7l0,-1l0,-2l0,-1l0,-3c0,-0.552 0.448,-1 1,-1c0.667,0 1.333,0 2,0l14,0c0.666,0 1.332001,0 2,0c0.551001,0 1,0.448 1,1l0,3z"/>
  <path id="svg_2" fill="#ffffff" d="m16,19c-1.104,0 -2,0.895 -2,2c0,0.607 0.333,1.76 0.667,2.672001c0.272,0.741999 0.614,1.325998 1.333,1.325998c0.782,0 1.061001,-0.577999 1.334,-1.316c0.338001,-0.914 0.666,-2.073 0.666,-2.681999c0,-1.105 -0.896,-2 -2,-2z"/>
 </g>
</svg>