<svg width="32" height="32" xmlns="http://www.w3.org/2000/svg">

 <g>
  <title>background</title>
  <rect fill="none" id="canvas_background" height="402" width="582" y="-1" x="-1"/>
 </g>
 <g>
  <title>Layer 1</title>
  <path id="svg_1" fill="#ffffff" d="m30.391001,12.68l-3.064001,-0.614c-0.153999,-0.443 -0.336,-0.873 -0.536999,-1.289l1.735998,-2.604c0.529001,-0.793 0.424002,-1.85 -0.25,-2.523l-1.924,-1.924c-0.386999,-0.387 -0.897999,-0.586 -1.415998,-0.586c-0.383001,0 -0.77,0.11 -1.107,0.336l-2.604,1.735c-0.418001,-0.202 -0.848,-0.382 -1.291,-0.536l-0.614,-3.065c-0.185999,-0.936 -1.007999,-1.608 -1.961,-1.608l-2.719999,0c-0.953,0 -1.774,0.673 -1.960999,1.608l-0.614,3.065c-0.443,0.154 -0.873,0.335 -1.289001,0.536l-2.603,-1.735c-0.339,-0.226 -0.725,-0.336 -1.109,-0.336c-0.517,0 -1.028,0.199 -1.415,0.586l-1.923,1.924c-0.674,0.674 -0.779,1.73 -0.25,2.523l1.735,2.604c-0.202,0.417 -0.382,0.846999 -0.536,1.29l-3.066,0.613c-0.935,0.186999 -1.608,1.007999 -1.608,1.960999l0,2.72c0,0.952999 0.673,1.775 1.608,1.961l3.065,0.615c0.154,0.442999 0.335,0.872999 0.536,1.289l-1.734,2.604c-0.529,0.792999 -0.424,1.85 0.25,2.523001l1.924,1.924c0.387,0.386999 0.898,0.586 1.415,0.586c0.384,0 0.771,-0.111 1.108,-0.336l2.604,-1.736c0.417,0.202999 0.847,0.382999 1.29,0.536999l0.613,3.064001c0.187,0.935999 1.008,1.608999 1.961,1.608999l2.72,0c0.952999,0 1.775,-0.674 1.960999,-1.608999l0.615002,-3.064001c0.442999,-0.153999 0.872999,-0.335999 1.289,-0.536999l2.604,1.736c0.337999,0.225 0.725,0.336 1.107,0.336c0.518,0 1.028999,-0.199001 1.415998,-0.586l1.924,-1.924c0.674002,-0.674 0.779001,-1.730001 0.25,-2.523001l-1.735998,-2.604c0.202999,-0.417999 0.382999,-0.848 0.536999,-1.291l3.064001,-0.612999c0.934999,-0.185001 1.608999,-1.008001 1.608999,-1.961l0,-2.72c0,-0.953 -0.674,-1.774 -1.608999,-1.960999zm-3.457001,5.295c-0.695,0.139 -1.264,0.635 -1.496,1.305c-0.129,0.368999 -0.278999,0.726999 -0.447001,1.073999c-0.310999,0.639 -0.257999,1.393 0.135,1.982l1.736,2.604l-1.924,1.924l-2.604,-1.736c-0.334,-0.223 -0.720999,-0.336 -1.108999,-0.336c-0.297001,0 -0.596001,0.066 -0.871,0.198999c-0.348,0.168001 -0.705,0.320002 -1.076,0.449001c-0.667999,0.232 -1.164,0.800999 -1.302999,1.496l-0.615,3.066l-2.72,0l-0.613,-3.066c-0.139001,-0.695002 -0.635,-1.264 -1.304001,-1.496c-0.368999,-0.129 -0.728,-0.279001 -1.075,-0.447001c-0.276,-0.135 -0.573999,-0.201 -0.872,-0.201c-0.389,0 -0.775,0.113001 -1.109,0.336l-2.604,1.736l-1.924,-1.924l1.735,-2.604c0.393,-0.59 0.444,-1.344 0.137,-1.98c-0.168,-0.348001 -0.319,-0.705002 -0.448,-1.076c-0.232,-0.668001 -0.802,-1.164001 -1.496,-1.303001l-3.065,-0.615l-0.002,-2.721l3.066,-0.613c0.694,-0.139 1.264,-0.635 1.496,-1.304c0.129,-0.369 0.278,-0.728 0.447,-1.075c0.31,-0.638 0.258,-1.392 -0.136,-1.981l-1.734,-2.604l1.923,-1.924l2.604001,1.735c0.334,0.223 0.721,0.336 1.108999,0.336c0.297,0 0.595,-0.066 0.871,-0.199c0.347,-0.168 0.705,-0.319 1.075,-0.448c0.669001,-0.232 1.165,-0.802 1.304,-1.496l0.614,-3.065l2.719999,-0.001l0.613001,3.066c0.139,0.694 0.635,1.264 1.305,1.496c0.368999,0.129 0.726999,0.278 1.073999,0.447c0.277,0.134 0.573999,0.2 0.873001,0.2c0.389,0 0.775,-0.113 1.108999,-0.336l2.604,-1.735l1.924,1.924l-1.736,2.604c-0.393,0.59 -0.443001,1.342999 -0.136999,1.98c0.167999,0.347 0.32,0.705 0.448999,1.075c0.232,0.669001 0.801001,1.165 1.496,1.304001l3.063999,0.613999l0.003,2.72l-3.066,0.614z"/>
  <path id="svg_2" fill="#ffffff" d="m16,9.001c-3.865,0 -7,3.134999 -7,6.999999c0,3.866001 3.135,7 7,7s7,-3.135 7,-7c0,-3.865 -3.135,-6.999999 -7,-6.999999zm0,13.126c-3.382,0 -6.125,-2.744001 -6.125,-6.125c0,-3.382001 2.743,-6.125001 6.125,-6.125001c3.381001,0 6.125,2.743 6.125,6.125001c0,3.380999 -2.743999,6.125 -6.125,6.125z"/>
  <path id="svg_3" fill="#ffffff" d="m16,12.001c-2.21,0 -4,1.79 -4,3.999999c0,2.209 1.79,4 4,4c2.209,0 4,-1.791 4,-4c0,-2.209 -1.791,-3.999999 -4,-3.999999zm0,7.001c-1.656,0 -3,-1.344 -3,-3c0,-1.656001 1.344,-3.000001 3,-3.000001s3,1.344 3,3.000001c0,1.656 -1.344,3 -3,3z"/>
 </g>
</svg>