<svg xmlns="http://www.w3.org/2000/svg" viewBox="0 0 39.9 29.59"><defs><style>.cls-1{fill:#e3e3e3;}</style></defs><title>statisticsAsset 7</title><g id="Layer_2" data-name="Layer 2"><g id="Layer_1-2" data-name="Layer 1"><g id="_Group_" data-name="&lt;Group&gt;"><g id="_Group_2" data-name="&lt;Group&gt;"><path id="_Compound_Path_" data-name="&lt;Compound Path&gt;" class="cls-1" d="M8.15,15.39V2.59h8.09V11Zm.79-12V14.1l6.53-3.52V3.38Z"/></g><g id="_Group_3" data-name="&lt;Group&gt;"><path id="_Compound_Path_2" data-name="&lt;Compound Path&gt;" class="cls-1" d="M16.25,25.47H8.16v-3l8.09-4.35Zm-7.31-.78h6.53V19.46L8.94,23v1.72Z"/></g><g id="_Group_4" data-name="&lt;Group&gt;"><path id="_Compound_Path_3" data-name="&lt;Compound Path&gt;" class="cls-1" d="M25.86,25.47H17.77V17.76l4.64,3.63,3.45-2.12v6.2Zm-7.3-.78h6.53v-4l-2.73,1.67-3.8-3Z"/></g><g id="_Group_5" data-name="&lt;Group&gt;"><path id="_Compound_Path_4" data-name="&lt;Compound Path&gt;" class="cls-1" d="M22.76,13.92l-5-3.9V2.59h8.09V12Zm-4.2-4.27L22.81,13l2.27-1.4V3.38H18.55V9.65Z"/></g><g id="_Group_6" data-name="&lt;Group&gt;"><path id="_Compound_Path_5" data-name="&lt;Compound Path&gt;" class="cls-1" d="M27.39,11.08V2.59h8.09V6.11Zm.78-7.7V9.69l6.53-4V3.38Z"/></g><g id="_Group_7" data-name="&lt;Group&gt;"><path id="_Compound_Path_6" data-name="&lt;Compound Path&gt;" class="cls-1" d="M35.49,25.47H27.4V18.35l8.09-5Zm-7.32-.78H34.7V14.78l-6.53,4Z"/></g><g id="_Group_8" data-name="&lt;Group&gt;"><path id="_Compound_Path_7" data-name="&lt;Compound Path&gt;" class="cls-1" d="M6,22.76,3.8,18.63,17.92,11l4.84,3.78,14.3-8.77L39.9,9.81,22.44,20.52l-5-3.89ZM4.85,19,6.33,21.7l11.18-6,4.95,3.88,16.27-10-1.9-2.51L22.69,15.77,17.82,12Z"/></g><g id="_Group_9" data-name="&lt;Group&gt;"><path id="_Compound_Path_8" data-name="&lt;Compound Path&gt;" class="cls-1" d="M39.86,29.59H0V0H3.5V26.09H39.85v3.5ZM.79,28.81H39.08V26.86H2.72V.79H.77v28Z"/></g></g></g></g></svg>